# xmcd
#
# Track frame offsets:
#	150
#	14909
#	28305
#	44911
#	61063
#	74663
#	88121
#	99357
#	111639
#	124011
#	146727
#	166796
#	181533
#	194303
#	208325
#
# Disc length: 3005 seconds
#
# Revision: 1
# Processed by: cddbd v1.5.2PL0 Copyright (c) Steve Scherf et al.
# Submitted via: audiograbber 1.83.01
#
DISCID=e70bbb0f
DTITLE=George Jones and Friends - Soundstage - 50th Anniversary Concert
DYEAR=2018
DGENRE=Country
TTITLE0=Alan Jackson - I'm a One Woman Man
TTITLE1=Kenny Chesney - Tennessee Whiskey
TTITLE2=Randy Travis and George Jones - A Few Ole Country Boys
TTITLE3=Lorrie Morgan - A Picture of Me Without You
TTITLE4=Vince Gill - If My Heart Had Windows
TTITLE5=Martina McBride - Just One More
TTITLE6=Trick Pony - The Race is On
TTITLE7=Joe Diffie - White Lightning
TTITLE8=Sammy Kershaw - You're Still on My Mind
TTITLE9=Harry Connick Jr - She Thinks I Still Care
TTITLE10=Amy Grant - Bartender's Blues
TTITLE11=Aaron Neville - The Grand Tour
TTITLE12=Randy Travis - Once You've Had the Best
TTITLE13=Kenny Chesney - I Always Get Lucky With You
TTITLE14=George Jones - He Stopped Loving Her Today
EXTD=
EXTT0=
EXTT1=
EXTT2=
EXTT3=
EXTT4=
EXTT5=
EXTT6=
EXTT7=
EXTT8=
EXTT9=
EXTT10=
EXTT11=
EXTT12=
EXTT13=
EXTT14=
PLAYORDER=
